<svg xmlns="http://www.w3.org/2000/svg" xmlns:xlink="http://www.w3.org/1999/xlink" width="1920" zoomAndPan="magnify" viewBox="0 0 1440 809.999993" height="1080" preserveAspectRatio="xMidYMid meet" version="1.0"><defs><clipPath id="a193c0f961"><path d="M 263.328125 0 L 1192.578125 0 L 1192.578125 810 L 263.328125 810 Z M 263.328125 0 " clip-rule="nonzero"/></clipPath><clipPath id="db28f965a0"><path d="M 0 0 L 302.519531 0 L 302.519531 810 L 0 810 Z M 0 0 " clip-rule="nonzero"/></clipPath><clipPath id="b2ea1702e1"><path d="M 1153.382812 0 L 1440 0 L 1440 810 L 1153.382812 810 Z M 1153.382812 0 " clip-rule="nonzero"/></clipPath><clipPath id="52e924a162"><path d="M 555 594.945312 L 901 594.945312 L 901 637.695312 L 555 637.695312 Z M 555 594.945312 " clip-rule="nonzero"/></clipPath><clipPath id="28d68a2b6a"><path d="M 580 141 L 641 141 L 641 200.425781 L 580 200.425781 Z M 580 141 " clip-rule="nonzero"/></clipPath><clipPath id="5e4755f841"><path d="M 737 141 L 798 141 L 798 200.425781 L 737 200.425781 Z M 737 141 " clip-rule="nonzero"/></clipPath><clipPath id="d2c5f55f09"><path d="M 657.871094 140.425781 L 720.121094 140.425781 L 720.121094 202.675781 L 657.871094 202.675781 Z M 657.871094 140.425781 " clip-rule="nonzero"/></clipPath><clipPath id="5f0618f51a"><path d="M 814.574219 140.425781 L 876.824219 140.425781 L 876.824219 202.675781 L 814.574219 202.675781 Z M 814.574219 140.425781 " clip-rule="nonzero"/></clipPath><clipPath id="d09741be02"><path d="M 0 171.535156 L 199.449219 171.535156 L 199.449219 656.785156 L 0 656.785156 Z M 0 171.535156 " clip-rule="nonzero"/></clipPath><clipPath id="d91d13f7aa"><path d="M 1241.976562 171.535156 L 1440 171.535156 L 1440 656.785156 L 1241.976562 656.785156 Z M 1241.976562 171.535156 " clip-rule="nonzero"/></clipPath></defs><rect x="-144" width="1728" fill="#ffffff" y="-80.999999" height="971.999992" fill-opacity="1"/><rect x="-144" width="1728" fill="#ffffff" y="-80.999999" height="971.999992" fill-opacity="1"/><rect x="-144" width="1728" fill="#6482f4" y="-80.999999" height="971.999992" fill-opacity="1"/><g clip-path="url(#a193c0f961)"><path fill="#ff8cfa" d="M 727.953125 -59.78125 C 471.347656 -59.78125 263.328125 148.238281 263.328125 404.84375 C 263.328125 661.449219 471.347656 869.46875 727.953125 869.46875 C 984.558594 869.46875 1192.578125 661.449219 1192.578125 404.84375 C 1192.578125 148.238281 984.558594 -59.78125 727.953125 -59.78125 " fill-opacity="1" fill-rule="nonzero"/></g><g clip-path="url(#db28f965a0)"><path fill="#ff8cfa" d="M -162.105469 -59.78125 C -418.710938 -59.78125 -626.730469 148.238281 -626.730469 404.84375 C -626.730469 661.449219 -418.710938 869.46875 -162.105469 869.46875 C 94.5 869.46875 302.519531 661.449219 302.519531 404.84375 C 302.519531 148.238281 94.5 -59.78125 -162.105469 -59.78125 " fill-opacity="1" fill-rule="nonzero"/></g><g clip-path="url(#b2ea1702e1)"><path fill="#ff8cfa" d="M 1618.007812 -59.78125 C 1361.402344 -59.78125 1153.382812 148.238281 1153.382812 404.84375 C 1153.382812 661.449219 1361.402344 869.46875 1618.007812 869.46875 C 1874.613281 869.46875 2082.632812 661.449219 2082.632812 404.84375 C 2082.632812 148.238281 1874.613281 -59.78125 1618.007812 -59.78125 " fill-opacity="1" fill-rule="nonzero"/></g><g clip-path="url(#52e924a162)"><path fill="#d4ff72" d="M 896.296875 620.039062 C 888.015625 620.039062 884.046875 615.914062 878.59375 610.230469 L 878.457031 610.097656 C 871.929688 603.332031 863.851562 594.945312 848.171875 594.945312 C 832.351562 594.945312 824.277344 603.398438 817.746094 610.230469 C 812.296875 615.914062 808.324219 620.039062 800.046875 620.039062 C 791.765625 620.039062 787.796875 615.914062 782.34375 610.230469 L 782.140625 610.027344 C 775.679688 603.332031 767.671875 595.011719 752.121094 595.011719 C 736.304688 595.011719 728.230469 603.46875 721.765625 610.230469 L 721.699219 610.300781 C 716.246094 615.980469 712.277344 620.109375 703.996094 620.109375 C 695.71875 620.109375 691.746094 615.980469 686.296875 610.300781 L 686.09375 610.097656 C 679.632812 603.398438 671.554688 595.011719 655.875 595.011719 C 640.054688 595.011719 631.980469 603.46875 625.515625 610.230469 L 625.449219 610.300781 C 620 615.980469 616.027344 620.109375 607.75 620.109375 C 599.46875 620.109375 595.5 615.980469 590.046875 610.300781 L 589.910156 610.164062 C 583.382812 603.398438 575.304688 595.011719 559.625 595.011719 L 555.585938 595.011719 L 555.585938 612.597656 L 559.625 612.597656 C 567.902344 612.597656 571.875 616.726562 577.324219 622.40625 L 577.527344 622.609375 C 583.988281 629.308594 592.066406 637.695312 607.75 637.695312 C 623.566406 637.695312 631.640625 629.238281 638.105469 622.476562 L 638.171875 622.40625 C 643.625 616.726562 647.59375 612.597656 655.875 612.597656 C 664.152344 612.597656 668.121094 616.726562 673.574219 622.40625 L 673.710938 622.542969 C 680.238281 629.308594 688.316406 637.695312 703.996094 637.695312 C 719.816406 637.695312 727.890625 629.238281 734.355469 622.476562 L 734.421875 622.40625 C 739.871094 616.726562 743.84375 612.597656 752.121094 612.597656 C 760.46875 612.597656 764.371094 616.726562 769.757812 622.40625 C 776.21875 629.171875 784.296875 637.628906 800.113281 637.628906 C 815.929688 637.628906 824.007812 629.171875 830.46875 622.40625 L 830.535156 622.339844 C 835.988281 616.65625 839.960938 612.53125 848.238281 612.53125 C 856.515625 612.53125 860.488281 616.65625 865.941406 622.339844 L 866.074219 622.476562 C 872.601562 629.238281 880.679688 637.628906 896.296875 637.628906 L 900.332031 637.628906 L 900.332031 620.039062 Z M 896.296875 620.039062 " fill-opacity="1" fill-rule="nonzero"/></g><g clip-path="url(#28d68a2b6a)"><path fill="#d4ff72" d="M 618.972656 170.730469 L 638.613281 151.160156 C 640.941406 148.84375 640.941406 145.082031 638.613281 142.761719 C 636.28125 140.441406 632.511719 140.441406 630.179688 142.761719 L 610.539062 162.332031 L 590.898438 142.761719 C 588.574219 140.441406 584.796875 140.441406 582.46875 142.761719 C 580.140625 145.082031 580.140625 148.84375 582.46875 151.164062 L 602.109375 170.730469 L 582.417969 190.351562 C 580.09375 192.667969 580.09375 196.429688 582.417969 198.75 C 583.582031 199.910156 585.109375 200.492188 586.636719 200.492188 C 588.160156 200.492188 589.6875 199.910156 590.851562 198.75 L 610.539062 179.132812 L 630.175781 198.703125 C 631.34375 199.863281 632.867188 200.441406 634.390625 200.441406 C 635.917969 200.441406 637.441406 199.863281 638.609375 198.703125 C 640.9375 196.382812 640.9375 192.621094 638.609375 190.300781 Z M 618.972656 170.730469 " fill-opacity="1" fill-rule="nonzero"/></g><g clip-path="url(#5e4755f841)"><path fill="#d4ff72" d="M 775.675781 170.730469 L 795.316406 151.160156 C 797.644531 148.84375 797.644531 145.082031 795.316406 142.761719 C 792.984375 140.441406 789.214844 140.441406 786.886719 142.761719 L 767.242188 162.332031 L 747.601562 142.761719 C 745.277344 140.441406 741.5 140.441406 739.171875 142.761719 C 736.84375 145.082031 736.84375 148.84375 739.171875 151.164062 L 758.8125 170.730469 L 739.125 190.351562 C 736.796875 192.667969 736.796875 196.429688 739.125 198.75 C 740.285156 199.910156 741.8125 200.492188 743.339844 200.492188 C 744.863281 200.492188 746.390625 199.910156 747.554688 198.75 L 767.242188 179.132812 L 786.882812 198.703125 C 788.046875 199.863281 789.570312 200.441406 791.097656 200.441406 C 792.621094 200.441406 794.148438 199.863281 795.3125 198.703125 C 797.640625 196.382812 797.640625 192.621094 795.3125 190.300781 Z M 775.675781 170.730469 " fill-opacity="1" fill-rule="nonzero"/></g><g clip-path="url(#d2c5f55f09)"><path fill="#d4ff72" d="M 688.996094 140.425781 C 671.804688 140.425781 657.871094 154.363281 657.871094 171.550781 C 657.871094 188.742188 671.804688 202.675781 688.996094 202.675781 C 706.183594 202.675781 720.121094 188.742188 720.121094 171.550781 C 720.121094 154.363281 706.183594 140.425781 688.996094 140.425781 Z M 688.996094 192.300781 C 677.535156 192.300781 668.246094 183.011719 668.246094 171.550781 C 668.246094 160.09375 677.535156 150.800781 688.996094 150.800781 C 700.453125 150.800781 709.746094 160.09375 709.746094 171.550781 C 709.746094 183.011719 700.453125 192.300781 688.996094 192.300781 Z M 688.996094 192.300781 " fill-opacity="1" fill-rule="nonzero"/></g><g clip-path="url(#5f0618f51a)"><path fill="#d4ff72" d="M 845.699219 140.425781 C 828.507812 140.425781 814.574219 154.363281 814.574219 171.550781 C 814.574219 188.742188 828.507812 202.675781 845.699219 202.675781 C 862.886719 202.675781 876.824219 188.742188 876.824219 171.550781 C 876.824219 154.363281 862.886719 140.425781 845.699219 140.425781 Z M 845.699219 192.300781 C 834.238281 192.300781 824.949219 183.011719 824.949219 171.550781 C 824.949219 160.09375 834.238281 150.800781 845.699219 150.800781 C 857.15625 150.800781 866.449219 160.09375 866.449219 171.550781 C 866.449219 183.011719 857.15625 192.300781 845.699219 192.300781 Z M 845.699219 192.300781 " fill-opacity="1" fill-rule="nonzero"/></g><g clip-path="url(#d09741be02)"><path fill="#9bd5ff" d="M -43.175781 291.296875 L -4.746094 171.535156 L -5.230469 297.3125 L 68.335938 195.21875 L 29.027344 314.6875 L 130.542969 240.441406 L 56.203125 341.957031 L 175.671875 302.652344 L 73.574219 376.214844 L 199.351562 375.730469 L 79.6875 414.160156 L 199.449219 452.59375 L 73.671875 452.109375 L 175.769531 525.671875 L 56.300781 486.367188 L 130.542969 587.882812 L 29.027344 513.542969 L 68.335938 633.007812 L -5.230469 530.914062 L -4.746094 656.691406 L -43.175781 537.027344 L -81.609375 656.785156 L -81.121094 531.011719 L -154.6875 633.105469 L -115.382812 513.636719 L -216.894531 587.882812 L -142.554688 486.367188 L -262.023438 525.671875 L -159.925781 452.109375 L -285.800781 452.59375 L -166.042969 414.160156 L -285.800781 375.730469 L -160.023438 376.214844 L -262.023438 302.652344 L -142.554688 341.957031 L -216.894531 240.441406 L -115.382812 314.78125 L -154.6875 195.3125 L -81.121094 297.410156 L -81.609375 171.535156 Z M -43.175781 291.296875 " fill-opacity="1" fill-rule="nonzero"/></g><g clip-path="url(#d91d13f7aa)"><path fill="#9bd5ff" d="M 1484.601562 291.296875 L 1523.035156 171.535156 L 1522.550781 297.3125 L 1596.113281 195.21875 L 1556.808594 314.6875 L 1658.324219 240.441406 L 1583.980469 341.957031 L 1703.449219 302.652344 L 1601.355469 376.214844 L 1727.132812 375.730469 L 1607.46875 414.160156 L 1727.226562 452.59375 L 1601.453125 452.109375 L 1703.546875 525.671875 L 1584.078125 486.367188 L 1658.324219 587.882812 L 1556.808594 513.542969 L 1596.113281 633.007812 L 1522.550781 530.914062 L 1523.035156 656.691406 L 1484.601562 537.027344 L 1446.171875 656.785156 L 1446.65625 531.011719 L 1373.09375 633.105469 L 1412.398438 513.636719 L 1310.882812 587.882812 L 1385.222656 486.367188 L 1265.753906 525.671875 L 1367.851562 452.109375 L 1241.976562 452.59375 L 1361.738281 414.160156 L 1241.976562 375.730469 L 1367.753906 376.214844 L 1265.753906 302.652344 L 1385.222656 341.957031 L 1310.882812 240.441406 L 1412.398438 314.78125 L 1373.09375 195.3125 L 1446.65625 297.410156 L 1446.171875 171.535156 Z M 1484.601562 291.296875 " fill-opacity="1" fill-rule="nonzero"/></g></svg>